# xmcd
#
# Track frame offsets: 
#        150
#        11539
#        26469
#        38043
#        46958
#        61244
#        72178
#        87773
#        103675
#        117098
#        133144
#        153586
#        175688
#
# Disc length: 2527 seconds
#
# Revision: 0
# Processed by: cddbd v1.5.2PL0 Copyright (c) Steve Scherf et al.
# Submitted via: ExactAudioCopy v0.99pb3
#
DISCID=9f09dd0d
DTITLE=Bankrupt Sugar Daddies - The Bankrupt Sugar Daddies
DYEAR=2007
DGENRE=Blues
TTITLE0=Bankrupt Sugardaddy
TTITLE1=Love God
TTITLE2=Bolshevik
TTITLE3=Come Together
TTITLE4=Connecting The Dots
TTITLE5=You-You
TTITLE6=16 Million
TTITLE7=The Sign Sign
TTITLE8=Jockey Full Of Bourbon
TTITLE9=Creamy Puff
TTITLE10=Life During Wartime
TTITLE11=Faded Yellow Lounge Chair
TTITLE12=Rain On My Windowsill
EXTD=
EXTT0=
EXTT1=
EXTT2=
EXTT3=
EXTT4=
EXTT5=
EXTT6=
EXTT7=
EXTT8=
EXTT9=
EXTT10=
EXTT11=
EXTT12=
PLAYORDER=
